# xmcd
#
# Track frame offsets:
# 150
# 12645
# 29137
# 43512
# 55980
# 69005
# 80737
# 99605
# 116192
# 130985
# 147570
# 163215
# 175872
# 190075
# 206327
# 220437
# 233317
# 249282
# 266467
# 277130
#
# Disc length: 3882 seconds
#
#
# Revision: 0
# Processed by: cddbd v1.5.2PL0 Copyright (c) Steve Scherf et al.
# Submitted via: FreeRIP 2.95 
#
DISCID=2d0f2814
DTITLE=GENIVAL SANTOS - 20 SUCESSOS
DYEAR=2007
DGENRE=POPULAR
TTITLE0=EU NÃO SOU BRINGUEDO
TTITLE1=LIVRO ABERTO
TTITLE2=SE ERRAR OUTRA VEZ
TTITLE3=SE FOR PRECISO
TTITLE4=VEM MORAR COMIGO
TTITLE5=EUTE PEGUEI NO FRAGA
TTITLE6=SENDO ASSIM
TTITLE7=PAZ E AMOR
TTITLE8=VOU CAIR NA GANDAIA
TTITLE9=CRUCIFICADO DO AMOR
TTITLE10=ESPELHO DA VIDA
TTITLE11=AQUELE LAR
TTITLE12=MEU CORAÇÃO ESTA EM GREVE
TTITLE13=CRISE DE AMOR
TTITLE14=SERA QUE MEREÇO ESSE CASTIGO
TTITLE15=SANGUE DO MEU SANGUE
TTITLE16=POR QUE SERA?
TTITLE17=PRECISO PARAR PRA PENSAR
TTITLE18=A CIGANA ME ENGANOU
TTITLE19=ESSA MENINA É DEMAIS
EXTD=
EXTT0=
EXTT1=
EXTT2=
EXTT3=
EXTT4=
EXTT5=
EXTT6=
EXTT7=
EXTT8=
EXTT9=
EXTT10=
EXTT11=
EXTT12=
EXTT13=
EXTT14=
EXTT15=
EXTT16=
EXTT17=
EXTT18=
EXTT19=
PLAYORDER=
